# xmcd
#
# Track frame offsets:
#	150
#	17345
#	35954
#	62510
#
# Disc length: 1187 seconds
#
# Revision: 1
# Processed by: cddbd v1.5.2PL0 Copyright (c) Steve Scherf et al.
# Submitted via: dBpowerAMP V4.0
#
DISCID=2a04a104
DTITLE=Feeder - Crash [Single]
DYEAR=1997
DGENRE=Rock
TTITLE0=Crash [Radio Mix]
TTITLE1=Undivided
TTITLE2=Swim [Alternate Version]
TTITLE3=DATA
EXTD=
EXTT0=
EXTT1=
EXTT2=
EXTT3=
PLAYORDER=
